<?xml version="1.0" encoding="utf-8"?>
<!-- Generator: Adobe Illustrator 27.4.0, SVG Export Plug-In . SVG Version: 6.00 Build 0)  -->
<svg version="1.1" xmlns="http://www.w3.org/2000/svg" xmlns:xlink="http://www.w3.org/1999/xlink" x="0px" y="0px"
	 viewBox="0 0 1092.19 680.64" enable-background="new 0 0 1092.19 680.64" xml:space="preserve">
<g id="Calque_2">
</g>
<g id="Calque_1">
	<g>
		<g>
			<g>
				<path fill="#00D07F" d="M351.37,500.12c1.99,1.32,2.36,2.6,2.06-0.66C353.22,498.61,352.32,499.46,351.37,500.12z"/>
				<path fill="#00D07F" d="M355.79,503.45c0.31,0.35,0.65,0.29,1.03,0.1C356.46,503.55,356.12,503.51,355.79,503.45z"/>
				<path fill="#00D07F" d="M360.79,504.75c-0.61-0.7-1.43-0.96-2.31-1.07C358.91,504.38,359.63,504.81,360.79,504.75z"/>
				<path fill="#00D07F" d="M358.02,501.65c-0.14,0.84-0.43,1.66-1.2,1.9C358.9,503.87,358.14,503.44,358.02,501.65z"/>
				<path fill="#00D07F" d="M358.02,501.65c0.13-0.81,0.1-1.66,0.18-2.12C358.07,500.27,358.01,500.99,358.02,501.65z"/>
				<path fill="#00D07F" d="M368.6,485.93c-3.51,7.93,3.64,0.91,6.56,3.29c1.38-0.63-0.15,5.29,1.24,4.68
					c22.85-9.12-14.34-5.89-19.58-10.2C358.73,491.05,362.15,487.1,368.6,485.93z"/>
				<path fill="#00D07F" d="M335.65,485.97c0.74-0.21,2.24-0.65,2.24-0.65c2.52,12.23,8.02-3.58,3.85,4.03
					C341.58,483.63,336.09,479.81,335.65,485.97z"/>
				<path fill="#00D07F" d="M335.67,481.83c0.63,0.03,1.48,0.89,1.72,0.08C336.82,481.94,336.01,481.52,335.67,481.83z"/>
				<path fill="#00D07F" d="M372.32,505.47c6.38,1.44,25.78,17.26,23.18,6.87c-1.36,3.3,5.61,6.22,0.89,4.04
					c-5.23,0.66,8.13,4.33,8.62,5.62c2.06,2.94,5.59,2.56,8.17,0.58c0.29,5.86,3.72-1.42,1.63-4.17c-0.2-2.85-3.63,4.52-3.34-0.65
					c-0.29,5.17,3.14-2.2,3.34,0.65c-0.03,5.18,2.95,3.56,5.03,8.59c-2.36,1.74-3.42-0.79-4.04-3.71c-1.96,1.28-0.34,1.61-2.61-0.71
					c20.51,20.88,90.07,19.2,121.22,4.48c28.45-13.45,79.76-57.96,38.15-82.45c-17.4-10.24-33.27,0.55-33.57,8.31
					c-0.54,2.9,2.66,13.5-8.01,10.15c-20.66-4.87-18.28,12.05-31.84,18.19c-34.75,15.74-54.88,20.32-92.58,15.04
					c9.03,1.27,18.05,1.18,5.57,7.4c-1.23,0.85-0.67-5.23-1.88-4.36c-3.21-1.91-8.92,6.71-6.65-2.05c-3.04,0.17-7.73,5.56-8.92,3.51
					c-5.61-12.48-7.35,3.91-10.09-1.88c2.09,5.06,2.6-0.1,3.42-2.67c-9.77,3.64-17.68-2.93-9.92,8.45c3.25-8.1-0.46,8.29-4.26-3.46
					c0,0-1.41,0.61-2.12,0.91C372.26,493.29,370.57,503.75,372.32,505.47z"/>
				<path fill="#00D07F" d="M396.39,516.55c-0.39,0.04-0.84,0-1.32-0.04C398.8,520.13,401.84,516.61,396.39,516.55z"/>
			</g>
		</g>
		<g>
			<g>
				<g>
					<path fill="#FFFFFF" d="M342.87,261.48v180.43h-49.74v-12.09c-8.07,9.94-19.9,15.85-36.03,15.85
						c-36.57,0-61.57-30.35-61.57-70.91c0-40.56,25-70.91,61.57-70.91c16.13,0,27.96,5.91,36.03,15.85v-58.22H342.87z
						 M293.13,374.76c0-14.24-9.41-25.25-23.93-25.25c-14.52,0-23.93,11.01-23.93,25.25c0,14.24,9.41,25.25,23.93,25.25
						C283.72,400,293.13,388.99,293.13,374.76z"/>
				</g>
			</g>
			<g>
				<path fill="#FFFFFF" d="M583.66,392.22l-32.26-53.72v53.72h-49.74V196.15h49.74v113.89l28.23-52.11h56.46l-40.87,67.15
					l43.56,67.15H583.66z"/>
				<path fill="#FFFFFF" d="M641.46,196.15h49.74v196.08h-49.74V196.15z"/>
				<path fill="#FFFFFF" d="M704.64,257.92h49.74v134.3h-49.74V257.92z"/>
				<path fill="#FFFFFF" d="M761.91,325.07c0-40.29,30.65-70.91,71.79-70.91c26.89,0,50.01,13.97,61.84,35.19l-41.94,23.91
					c-3.76-6.45-11.02-11.28-19.9-11.28c-12.64,0-22.05,9.67-22.05,23.1c0,13.43,9.41,23.1,22.05,23.1c8.87,0,16.4-4.84,19.9-11.55
					l41.94,24.17c-11.83,21.49-34.95,35.19-61.84,35.19C792.56,395.98,761.91,365.36,761.91,325.07z"/>
			</g>
			<path fill="#FFFFFF" d="M704.64,216.16c0-15.23,12.75-27.97,28-27.97c15.24,0,28,12.74,28,27.97s-12.75,27.97-28,27.97
				C717.39,244.13,704.64,231.39,704.64,216.16z"/>
			<path fill="#FFFFFF" d="M428.71,406.34c8.33,0,15.06-2.15,22.85-8.6l32.53,27.4c-13.98,15.04-35.22,21.76-57,21.76
				c-47.05,0-76.09-30.89-76.09-70.37c0-40.56,30.11-71.45,71.52-71.45c41.14,0,70.17,30.35,70.17,70.37
				c0,5.64-0.54,11.01-2.15,17.46h-89.26C406.67,404.19,417.96,406.34,428.71,406.34z M445.65,360.95
				c-3.5-12.09-12.1-16.12-21.78-16.12c-10.22,0-19.36,5.1-23.39,16.12H445.65z"/>
		</g>
	</g>
</g>
</svg>
