<?xml version="1.0" encoding="UTF-8" standalone="no"?>
<!-- Generator: Adobe Illustrator 27.4.0, SVG Export Plug-In . SVG Version: 6.00 Build 0)  -->

<svg
   version="1.1"
   x="0px"
   y="0px"
   viewBox="0 0 779138.92 209233.79"
   enable-background="new 0 0 1092.19 680.64"
   xml:space="preserve"
   id="svg19"
   width="779138.88"
   height="209233.8"
   xmlns="http://www.w3.org/2000/svg"
   xmlns:svg="http://www.w3.org/2000/svg"><defs
   id="defs19" />&#10;&#10;&#10;<g
   id="g77"
   transform="translate(-209453.02,-114646.64)"><path
     d="m 379.52344,436.76758 c -0.39789,0.0192 -1.02852,0.56188 -1.68164,1.01562 1.98998,1.32 2.36054,2.59983 2.06054,-0.66015 -0.0656,-0.26563 -0.19804,-0.3642 -0.3789,-0.35547 z"
     style="fill:#008000"
     id="path77" /><path
     d="m 382.26172,441.11328 c 0.31,0.35 0.65125,0.29156 1.03125,0.10156 -0.36,0 -0.70125,-0.0416 -1.03125,-0.10156 z"
     style="fill:#008000"
     id="path76" /><path
     d="m 384.95117,441.34375 c 0.43,0.7 1.15055,1.13031 2.31055,1.07031 -0.61,-0.69999 -1.43055,-0.96031 -2.31055,-1.07031 z"
     style="fill:#008000"
     id="path75" /><path
     d="m 384.49219,439.31445 c -0.14,0.84 -0.42922,1.66039 -1.19922,1.90039 2.07999,0.31999 1.31922,-0.11039 1.19922,-1.90039 z"
     style="fill:#008000"
     id="path74" /><path
     d="m 384.67187,437.19336 c -0.12999,0.74 -0.18968,1.4611 -0.17968,2.12109 0.13,-0.80999 0.0997,-1.66109 0.17968,-2.12109 z"
     style="fill:#008000"
     id="path73" /><path
     d="m 383.29297,421.36328 c 1.83194,7.0496 5.06045,3.71015 11.01172,2.39258 -4.89539,-0.47475 -9.42398,-1.08663 -11.01172,-2.39258 z m 11.01172,2.39258 c 0.22503,0.0218 0.44356,0.0451 0.66992,0.0664 0.0336,-0.0777 0.0619,-0.14772 0.0977,-0.22852 -0.2636,0.0478 -0.514,0.10597 -0.76758,0.16211 z m 0.66992,0.0664 c -3.26074,7.55013 3.76797,0.70675 6.6582,3.0625 1.38,-0.63 -0.14976,5.28968 1.24024,4.67968 6.85845,-2.73737 8.30615,-4.36187 6.83398,-5.41211 -1.48385,-0.2066 -2.95608,-0.42618 -4.39453,-0.69922 -1.87569,-0.33806 -3.71633,-0.72562 -5.50391,-1.1875 -0.007,-0.002 -0.0144,-0.004 -0.0215,-0.006 -0.002,-1.8e-4 -0.004,1.7e-4 -0.006,0 -1.57302,-0.14628 -3.19929,-0.28633 -4.80664,-0.4375 z"
     style="fill:#008000"
     id="path72" /><path
     d="m 364.07227,420.48437 c -0.98077,0.0109 -1.7911,0.93665 -1.94922,3.1504 0.74,-0.21 2.23828,-0.65039 2.23828,-0.6504 2.51998,12.22995 8.02154,-3.58066 3.85156,4.0293 -0.1025,-3.66435 -2.3923,-6.54877 -4.14062,-6.5293 z"
     style="fill:#008000"
     id="path71" /><path
     d="m 362.47461,419.37891 c -0.13265,0.005 -0.24703,0.0377 -0.33203,0.11523 0.63,0.03 1.47875,0.89006 1.71875,0.0801 -0.4275,0.0225 -0.98875,-0.20937 -1.38672,-0.19531 z"
     style="fill:#008000"
     id="path70" /><path
     d="m 585.38867,378.09961 c -0.60599,-0.021 -1.20419,-0.0197 -1.79297,0.002 -10.36241,0.38098 -17.92656,7.14745 -18.13281,12.48242 -0.54,2.89999 2.65824,13.50038 -8.01172,10.15039 -20.65991,-4.86998 -18.2799,12.04948 -31.83984,18.18946 -32.70638,14.81434 -52.47249,19.73708 -86.11524,15.86328 5.73895,0.80171 8.44768,1.92004 -0.89453,6.57617 -1.22999,0.85 -0.66891,-5.22937 -1.8789,-4.35937 -3.21,-1.91 -8.92039,6.70918 -6.65039,-2.05079 -3.04,0.17 -7.72994,5.56171 -8.91993,3.51172 -3.71938,-8.27412 -5.73232,-3.91821 -7.46875,-1.68945 0.27286,-0.95507 0.52676,-2.00859 0.79883,-2.86133 -9.76996,3.64 -17.67988,-2.93073 -9.91992,8.44922 3.24999,-8.09996 -0.45978,8.29097 -4.25977,-3.45898 0,0 -1.41109,0.61016 -2.12109,0.91015 0.55,-8.85996 -1.13867,1.60032 0.61133,3.32032 5.80091,1.30929 22.36047,14.49922 23.36523,9.07421 0.52986,1.03912 1.50604,1.85321 2.02149,2.27149 1.42226,0.31591 1.81415,0.82501 1.21679,1.11719 -0.20182,0.1786 -0.6242,0.24462 -1.21679,0.11132 -0.0719,-0.0149 -0.11998,-0.0164 -0.19532,-0.0371 -0.15776,-0.0463 -0.33659,-0.13566 -0.51171,-0.21289 -0.51866,-0.21625 -1.07626,-0.55581 -1.67383,-1.08789 -1.33668,1.12069 9.24778,4.14563 9.68359,5.29297 2.06,2.94 5.58993,2.56008 8.16992,0.58008 0.12284,2.48235 0.80111,2.54459 1.39258,1.6543 -0.12378,-0.095 -0.3142,-0.56215 -1.38281,-1.6543 0.47667,0.48527 1.00661,0.94524 1.53516,1.40625 0.34335,-0.6371 0.61243,-1.554 0.70117,-2.54883 0.97213,1.74314 2.91767,1.94383 4.41406,5.5625 -0.19593,0.14447 -0.37032,0.21688 -0.54883,0.30469 25.72308,15.77112 86.55569,13.25358 115.11914,-0.24414 28.4499,-13.44994 79.75828,-57.96127 38.14844,-82.45117 -4.75779,-2.8 -9.40066,-4.02692 -13.64258,-4.17383 z m -139.625,86.86914 c -1.04167,-0.63866 -2.0214,-1.30863 -2.94336,-2.00781 0.59621,1.6813 1.49654,2.71957 2.94336,2.00781 z m -2.94336,-2.00781 c -0.21623,-0.60978 -0.39752,-1.29518 -0.54883,-2.00782 -0.57755,0.37718 -0.81592,0.63013 -0.96289,0.79883 0.48034,0.41451 0.99094,0.81404 1.51172,1.20899 z m -1.51172,-1.20899 c -0.0385,-0.0332 -0.0731,-0.0682 -0.11132,-0.10156 -0.0498,0.0924 -0.10065,0.17024 -0.15235,0.24805 0.0617,0.0473 0.14667,-0.0122 0.26367,-0.14649 z m -18.44726,-7.70898 c -0.30854,0.0389 -0.54097,0.0897 -0.72656,0.14844 0.24592,0.0134 0.51162,0.0455 0.72656,0.0234 0.34463,0.004 0.38339,0.10404 0.66211,0.13282 -0.23946,-0.11182 -0.28163,-0.12896 -0.66211,-0.30469 z"
     style="fill:#008000"
     id="path69" /><path
     d="m 265.44336,329.75977 c -0.91311,0 -1.80611,0.0437 -2.67774,0.1289 -3.55847,0.72925 -7.00536,2.20497 -10.0371,4.48047 3.6665,-2.51418 8.03471,-3.95157 12.67578,-3.91797 3.44034,0.0249 7.03152,0.85862 10.59375,2.6582 15.33262,7.74581 17.10296,32.28164 3.02539,41.92774 -7.23288,4.95605 -13.62214,5.92935 -21.19922,3.22851 -2.48519,-0.88584 -4.79565,-2.24833 -6.83399,-3.96875 2.45369,2.39699 5.42169,4.25292 8.83789,5.35743 0,0 0.002,0 0.002,0 1.77281,0.38673 3.64113,0.60547 5.61328,0.60547 14.51993,-0.01 23.93164,-11.02008 23.93164,-25.25 0,-14.23993 -9.41171,-25.25 -23.93164,-25.25 z m 156.09961,124.41406 c 3.72998,3.61998 6.76834,0.10103 1.31836,0.041 -0.39,0.04 -0.83836,-0.001 -1.31836,-0.041 z"
     style="fill:#008000"
     id="path68" /><path
     d="m 289.375,241.73047 v 56.46875 c 0.01,0.007 0.0236,0.0204 0.0332,0.0273 0.56646,0.40696 1.87692,1.5586 2.00586,1.5586 0.19352,0 0.36869,-3.25155 0.4961,-8.49024 0.1274,-5.23869 0.20703,-12.46455 0.20703,-20.41211 v -28.90039 h 24.18164 22.8164 v -0.25195 z m -36.03125,42.36914 c -36.56985,0 -61.57031,30.35032 -61.57031,70.91016 0,40.55983 25.00046,70.91015 61.57031,70.91015 8.2844,0 15.42634,-1.57037 21.51562,-4.43359 -1.19732,0.48351 -2.44289,0.90471 -3.74023,1.2539 -6.1e-4,1.7e-4 -0.001,-1.6e-4 -0.002,0 -1.28064,0.34463 -2.63059,0.63848 -4.0625,0.8711 -0.0518,0.009 -0.10032,0.0208 -0.15235,0.0293 -0.61088,0.0972 -1.33117,0.15875 -1.97656,0.23829 -2.4547,0.30988 -5.09528,0.53316 -8.19726,0.6289 -2.63753,0.0814 -4.80299,0.12106 -6.67188,0.0977 -1.86888,-0.0234 -3.44135,-0.11034 -4.89258,-0.2793 -1.45123,-0.16896 -2.78145,-0.42012 -4.16601,-0.77539 -1.38456,-0.35527 -2.82331,-0.81414 -4.49219,-1.39648 -2.38209,-0.83122 -4.69194,-1.81985 -6.92383,-2.95899 -2.23189,-1.13913 -4.38672,-2.42806 -6.45312,-3.85742 -2.0664,-1.42935 -4.04603,-2.99929 -5.93164,-4.70117 -1.88562,-1.70188 -3.6757,-3.53549 -5.36524,-5.49219 -1.68954,-1.9567 -3.27769,-4.03664 -4.75586,-6.23047 -1.47817,-2.19382 -2.84614,-4.50276 -4.09765,-6.91601 -1.25152,-2.41325 -2.38693,-4.9319 -3.39649,-7.54688 -1.00956,-2.61497 -1.89417,-5.32599 -2.64648,-8.125 -0.68556,-2.55051 -1.20002,-5.82257 -1.54297,-9.45703 -0.34047,-3.60824 -0.50894,-7.57386 -0.51172,-11.54883 -4e-5,-0.0591 -3e-5,-0.11282 0,-0.17187 0.002,-3.97519 0.16995,-7.95522 0.50976,-11.58789 0.3423,-3.65903 0.85609,-6.96676 1.54102,-9.56641 0.55536,-2.10792 1.19089,-4.1808 1.90234,-6.20898 0.71146,-2.02818 1.49968,-4.0108 2.35547,-5.94141 0.8558,-1.93061 1.7792,-3.80979 2.76758,-5.625 0.98839,-1.81521 2.04117,-3.56802 3.15039,-5.25 1.10922,-1.68198 2.27584,-3.29134 3.49414,-4.82227 1.21831,-1.53092 2.4871,-2.98366 3.80274,-4.3457 1.31563,-1.36204 2.67886,-2.63326 4.08007,-3.80859 1.40122,-1.17533 2.84138,-2.25382 4.31641,-3.22461 2.74053,-1.80368 5.28628,-3.3025 7.77149,-4.53516 2.4852,-1.23266 4.91029,-2.1997 7.41015,-2.9414 2.49987,-0.74171 5.07488,-1.25707 7.85938,-1.5879 2.78449,-0.33082 5.77808,-0.47656 9.11718,-0.47656 3.51278,0 6.6516,0.16363 9.51368,0.52149 5.8e-4,7e-5 0.001,-8e-5 0.002,0 1.33651,0.16675 2.603,0.38617 3.82812,0.64062 0.0857,0.0178 0.18241,0.0267 0.26758,0.0449 6.1e-4,1.3e-4 10e-4,-1.3e-4 0.002,0 1.29896,0.27821 2.53976,0.61027 3.73632,0.9961 -5.509,-2.16035 -11.81205,-3.33008 -18.96484,-3.33008 z m 13.62695,45.25976 c -1.01025,0.0336 -2.01628,0.17216 -3.01953,0.32813 -0.39345,0.0648 -0.78802,0.11901 -1.17969,0.19922 -0.002,4.1e-4 -0.004,0.002 -0.006,0.002 0.87163,-0.0851 1.76463,-0.1289 2.67774,-0.1289 14.51994,0 23.93164,11.01005 23.93164,25.25 0,14.22994 -9.4117,25.24 -23.93164,25.25 -1.97215,0 -3.84047,-0.21874 -5.61328,-0.60547 0.15533,0.0502 0.28018,0.14844 0.4375,0.19531 1.24393,0.3706 2.77047,0.59712 4.43164,0.69141 1.66117,0.0943 3.45731,0.0562 5.23633,-0.0996 1.77901,-0.15582 3.54119,-0.43084 5.13867,-0.81055 1.59748,-0.37971 3.02993,-0.86401 4.14648,-1.44141 1.49745,-0.77436 2.87642,-1.74495 4.12696,-2.875 1.25054,-1.13004 2.37238,-2.42001 3.35937,-3.83398 0.98699,-1.41397 1.83813,-2.95199 2.54492,-4.57813 0.70679,-1.62613 1.26974,-3.34087 1.67969,-5.10742 0.40995,-1.76655 0.66721,-3.58472 0.76367,-5.41992 0.0965,-1.8352 0.0325,-3.68744 -0.20117,-5.51953 -0.23368,-1.8321 -0.63634,-3.64316 -1.2168,-5.40039 -0.58045,-1.75724 -1.33932,-3.4597 -2.2832,-5.07031 -0.55175,-0.9415 -1.16301,-1.82505 -1.82812,-2.64844 -4.65581,-5.76373 -11.90729,-8.61938 -19.19532,-8.37696 z m 25.14649,79.99024 -2.74219,2.3125 v 10.49805 h 49.74023 v -0.875 h -22.8164 -24.18164 v -5.96875 z"
     style="fill:#ffffff"
     id="path67" /><path
     d="m 497.9043,176.40039 v 106.32813 c 0.0505,-0.18076 0.0824,-0.39304 0.13476,-0.57032 0.51863,-1.75502 1.11164,-3.46379 1.7461,-5.14648 0.20418,-0.5417 0.43067,-1.06756 0.64648,-1.60156 0.46165,-1.14193 0.94349,-2.26911 1.45703,-3.375 0.27223,-0.58653 0.55146,-1.166 0.83789,-1.74219 0.52392,-1.05339 1.07435,-2.08548 1.64453,-3.10352 0.29753,-0.53153 0.58669,-1.06813 0.89649,-1.58984 0.71218,-1.19866 1.46329,-2.36614 2.23828,-3.51172 0.19856,-0.29371 0.37946,-0.60242 0.58203,-0.89258 0.95526,-1.36736 1.96249,-2.68601 3.00391,-3.97265 0.41453,-0.51255 0.85165,-1.00056 1.27929,-1.5 0.67201,-0.78422 1.3513,-1.55928 2.05469,-2.31055 0.51403,-0.54949 1.03812,-1.08563 1.56836,-1.61719 0.67526,-0.67637 1.36574,-1.33367 2.06641,-1.98047 0.55335,-0.51126 1.1032,-1.02509 1.67187,-1.51758 0.74548,-0.64504 1.51628,-1.25688 2.28711,-1.86914 0.54915,-0.43657 1.08297,-0.89285 1.64453,-1.3125 0.11844,-0.0884 0.24431,-0.16623 0.36328,-0.2539 1.1292,-0.83203 2.27886,-1.63576 3.45508,-2.39844 0.68122,-0.4421 1.3839,-0.8473 2.08008,-1.26562 0.72099,-0.43288 1.44138,-0.86447 2.17773,-1.27149 0.77308,-0.42767 1.55643,-0.83373 2.34571,-1.23242 0.68746,-0.34702 1.38089,-0.68112 2.08008,-1.00586 0.8254,-0.38362 1.65121,-0.76317 2.49218,-1.11523 0.70072,-0.29319 1.41403,-0.55714 2.125,-0.82813 0.84936,-0.3239 1.69144,-0.6614 2.55469,-0.95312 1.41782,-0.47899 2.85438,-0.91411 4.30664,-1.30469 v -57.08594 z m 99.5957,61.7793 c 1.38551,0.67452 2.72211,1.38478 4.06641,2.14453 1.81238,1.01127 3.58949,2.07578 5.29882,3.2207 0.66276,0.45133 1.2825,0.9222 1.92579,1.39258 2.17433,1.5656 4.26914,3.20604 6.16601,4.98047 1.33983,1.25334 2.60659,2.56291 3.83399,3.88086 0.8685,0.9171 1.63047,1.76112 2.41796,2.66015 l 11.125,-18.27929 z m 12.07031,37.40234 c -1.41468,0.8043 -1.28685,0.74243 -2.78711,1.59375 l -19.94336,11.31641 -2.28515,-2.9043 c -0.674,-0.85685 -1.49244,-1.65481 -2.42383,-2.38672 -0.9314,-0.7319 -1.97522,-1.39831 -3.10156,-1.99219 -1.12635,-0.59387 -2.33491,-1.11583 -3.59375,-1.55859 -1.25884,-0.44276 -2.5676,-0.80543 -3.89649,-1.08398 -1.32888,-0.27856 -2.67719,-0.47296 -4.01367,-0.57422 -1.33648,-0.10126 -2.66173,-0.11061 -3.94336,-0.0215 -1.28163,0.0891 -2.52122,0.27773 -3.68555,0.57032 -1.16432,0.29258 -2.2537,0.69007 -3.23828,1.19921 -0.78385,0.40535 -1.51001,0.88054 -2.2207,1.3711 -0.25186,0.17705 -0.50966,0.34785 -0.75195,0.53515 -0.51791,0.39265 -1.00293,0.81685 -1.47852,1.25196 -0.41845,0.38834 -0.82284,0.79075 -1.21094,1.20703 -6.2e-4,6.7e-4 -10e-4,0.001 -0.002,0.002 l -3.34961,6.1836 v -1.46875 c -0.74685,1.36911 -1.36067,2.80987 -1.84961,4.30078 -0.16655,0.50524 -0.30853,1.0183 -0.44531,1.5332 -0.39255,1.49222 -0.67526,3.01244 -0.81445,4.55078 -0.0429,0.45857 -0.0658,0.91733 -0.0859,1.37695 -0.066,1.63317 -0.003,3.26648 0.2207,4.87305 0.037,0.27245 0.0581,0.54773 0.10352,0.81836 0.30744,1.79496 0.80431,3.54108 1.48437,5.20508 0.10908,0.26875 0.21505,0.53873 0.33399,0.80273 0.25464,0.56167 0.53671,1.10903 0.83593,1.64649 0.1217,0.21955 0.22627,0.44896 0.35547,0.66406 0.4459,0.73944 0.94393,1.4467 1.47852,2.12695 0.16189,0.20643 0.33961,0.40117 0.50976,0.60157 0.43301,0.50903 0.89078,0.99803 1.37696,1.46484 0.19455,0.18695 0.38666,0.375 0.58984,0.55469 0.68402,0.60454 1.40018,1.18247 2.18164,1.69726 1.11777,0.73633 2.27422,1.36529 3.45899,1.88867 1.18477,0.52339 2.39811,0.94157 3.62695,1.25391 1.22884,0.31234 2.47464,0.51985 3.72461,0.62305 1.24997,0.1032 2.50378,0.10208 3.75195,-0.002 1.24817,-0.10403 2.48946,-0.31172 3.71289,-0.62109 1.22343,-0.30937 2.42971,-0.72158 3.60547,-1.23437 1.17576,-0.5128 2.32062,-1.12553 3.42578,-1.83985 1.10516,-0.71432 2.17002,-1.52942 3.18164,-2.44336 1.2374,-1.11791 2.45226,-2.13446 3.41407,-2.87109 0.9618,-0.73664 1.67056,-1.19336 1.89257,-1.19336 0.44401,0 5.68717,2.8445 11.65235,6.32226 1.0905,0.63578 2.31294,1.34068 3.54687,2.0586 L 591.46484,305.33008 Z M 497.9043,318.98242 v 53.48828 h 49.74023 v -3.58008 c -0.0912,-0.0233 -0.2124,-0.031 -0.30273,-0.0547 -2.89614,-0.75874 -5.70549,-1.68188 -8.41797,-2.75977 -2.71249,-1.07788 -5.32865,-2.31099 -7.83985,-3.6914 -2.5112,-1.38041 -4.9167,-2.90791 -7.20898,-4.57422 -2.29228,-1.66632 -4.47162,-3.47066 -6.52734,-5.40625 -2.05573,-1.9356 -3.98752,-4.0012 -5.78907,-6.18946 -1.80154,-2.18825 -3.47223,-4.49952 -5.00195,-6.92382 -1.52972,-2.4243 -2.91988,-4.96175 -4.16016,-7.60547 -1.24027,-2.64372 -2.33048,-5.39372 -3.26367,-8.24024 -0.46023,-1.40385 -0.86382,-2.90717 -1.22851,-4.46289 z m 121.41015,29.28125 c -1.11492,1.21137 -2.15232,2.41566 -3.32812,3.57422 -2.08296,2.05242 -4.36131,3.98875 -6.79297,5.78711 -2.43166,1.79836 -5.01686,3.45953 -7.71289,4.95703 -2.69604,1.4975 -5.50284,2.83257 -8.37891,3.98242 -2.87606,1.14986 -5.82121,2.11373 -8.79297,2.86914 -1.63238,0.41495 -3.6754,0.64333 -5.64843,0.90235 -0.0117,0.002 -0.0235,0.002 -0.0352,0.004 l 1.2793,2.13086 v 0.01 h 55.11914 z"
     style="fill:#ffffff"
     id="path66" /><path
     d="m 637.70508,176.40039 v 196.08008 h 49.73828 V 176.40039 Z m 0.40039,0.70313 h 24.18164 24.18359 v 97.31835 97.31836 h -24.18359 -24.18164 v -97.31836 z"
     style="fill:#ffffff"
     id="path65" /><path
     d="M 700.88477,238.16992 V 372.4707 H 750.625 V 238.16992 Z m 0.91992,0.27344 h 24.18164 24.18359 v 66.64844 66.64843 H 725.98633 701.80469 V 305.0918 Z"
     style="fill:#ffffff"
     id="path64" /><path
     d="m 829.94336,234.41016 c -3.70721,0 -7.32556,0.25827 -10.84766,0.74023 0.002,15.73391 0.10919,28.36088 0.27344,37.93359 0.0831,4.67533 0.17716,8.79368 0.29102,11.5918 1.48577,-0.76741 3.08206,-1.35678 4.76562,-1.76758 0.006,-0.01 0.012,-0.0215 0.0176,-0.0312 2.55532,-4.45625 4.93971,-8.546 10.06055,-18.03125 3.65005,-6.76096 7.11572,-12.96371 9.75976,-17.51172 2.64404,-4.548 4.46646,-7.44129 4.82813,-7.58007 0.33132,-0.12715 3.58373,-0.19904 7.89257,-0.23829 0.034,-3.1e-4 0.0284,-0.002 0.0625,-0.002 -8.32415,-3.28059 -17.4644,-5.10351 -27.10351,-5.10351 z m 58.25781,29.5332 -0.7207,1.17969 c -2.69985,4.42476 -3.82927,6.32599 -6.42188,10.59179 l 10.72657,-6.11523 c -1.09055,-1.95617 -2.30741,-3.82857 -3.58399,-5.65625 z m -117.4707,0.23242 c -7.98593,11.47052 -12.57617,25.57992 -12.57617,41.14453 0,15.56499 4.58988,29.67528 12.57617,41.14649 v -71.19141 z m 48.87109,61.78125 -0.23437,19.80078 -0.31641,26.83594 h -12.72266 c 7.32844,2.35731 15.24977,3.64444 23.61524,3.64648 8.8427,0 17.26327,-1.5089 25.02344,-4.26171 -0.8116,-0.0884 -1.56147,-0.19115 -2.05274,-0.3125 -0.71349,-0.14612 -1.25293,-0.31203 -1.44726,-0.52344 -0.75724,-0.82374 -8.21839,-12.91047 -16.58008,-26.85938 l -9.8125,-16.36914 c -1.94781,-0.41348 -3.77969,-1.076 -5.47266,-1.95703 z m 61.49219,8.93164 2.77344,4.28125 4.63867,7.1582 c 1.16201,-1.70792 2.27534,-3.45358 3.2793,-5.27734 z"
     style="fill:#ffffff"
     id="path63" /><path
     d="m 728.88477,168.43945 c -15.24994,-1e-5 -28,12.74077 -28,27.97071 0,15.22994 12.75006,27.9707 28,27.9707 15.24994,0 28,-12.74076 28,-27.9707 0,-15.22994 -12.76006,-27.97071 -28,-27.97071 z m 0.11328,0.62696 c 1.82586,0.0264 3.67946,0.27168 5.54101,0.75976 1.30042,0.34096 2.54856,0.75638 3.74414,1.23828 1.19558,0.4819 2.33939,1.02965 3.42578,1.63867 1.0864,0.60903 2.11699,1.27964 3.08985,2.00196 0.97286,0.72232 1.8872,1.49656 2.74219,2.31836 0.85498,0.8218 1.65005,1.6902 2.38281,2.59765 0.73276,0.90746 1.40357,1.8547 2.00976,2.83399 0.60619,0.97928 1.14777,1.99005 1.62305,3.02734 0.47528,1.0373 0.88459,2.10016 1.22461,3.18164 0.34002,1.08148 0.61014,2.18308 0.81055,3.29492 0.20041,1.11185 0.33026,2.2349 0.38672,3.36329 0.0565,1.12838 0.0391,2.26147 -0.0527,3.39257 -0.0918,1.13111 -0.25747,2.26086 -0.50195,3.38086 -0.24449,1.12001 -0.56728,2.22915 -0.96875,3.32422 -0.40148,1.09508 -0.8825,2.1761 -1.44531,3.23242 -0.56282,1.05633 -1.20706,2.08804 -1.93555,3.0918 -0.72849,1.00376 -1.54093,1.97865 -2.43945,2.91602 -0.84483,0.88134 -1.74478,1.70791 -2.6875,2.47461 -0.94273,0.76669 -1.92908,1.47281 -2.94727,2.11718 -1.01819,0.64438 -2.06745,1.22585 -3.13867,1.74024 -1.07122,0.51439 -2.16381,0.96311 -3.26563,1.33984 -1.10181,0.37673 -2.21228,0.68266 -3.32226,0.91406 -1.10998,0.23141 -2.21875,0.38839 -3.31446,0.4668 -1.0957,0.0784 -2.17928,0.0784 -3.23828,-0.004 -1.059,-0.0822 -2.09389,-0.24746 -3.09375,-0.49804 -1.07134,-0.2685 -2.1361,-0.61058 -3.18554,-1.01953 -1.04945,-0.40895 -2.0836,-0.88521 -3.09375,-1.41993 -2.02031,-1.06943 -3.94435,-2.37497 -5.70313,-3.85937 -1.75878,-1.48441 -3.35283,-3.14779 -4.71094,-4.92969 -0.67905,-0.89094 -1.29876,-1.81061 -1.85156,-2.7539 -0.55279,-0.9433 -1.03812,-1.90968 -1.44726,-2.89063 -0.45365,-1.08765 -0.82073,-2.18579 -1.10547,-3.28906 -0.28475,-1.10327 -0.48789,-2.21075 -0.61328,-3.31836 -0.1254,-1.10762 -0.17285,-2.21573 -0.14844,-3.31641 0.0244,-1.10068 0.12049,-2.19488 0.28515,-3.27734 0.16467,-1.08247 0.39799,-2.15211 0.69336,-3.20508 0.29538,-1.05297 0.65377,-2.08937 1.07032,-3.10156 0.83308,-2.02439 1.89969,-3.95639 3.16015,-5.75 1.26046,-1.79361 2.71471,-3.44928 4.32617,-4.92188 1.61147,-1.47259 3.37953,-2.76092 5.26563,-3.82226 0.94305,-0.53067 1.91472,-1.00508 2.91211,-1.41602 0.99739,-0.41094 2.02032,-0.75913 3.0625,-1.03906 1.04218,-0.27993 2.10421,-0.49127 3.18164,-0.62891 1.07743,-0.13763 2.17031,-0.20148 3.27344,-0.18554 z"
     style="fill:#ffffff"
     id="path62" /><path
     d="m 394.61523,289.15039 c -28.45393,9.43756 -47.37109,35.48862 -47.37109,67.62891 0,18.73195 6.54657,35.5231 18.44336,48.00586 -0.0224,-0.0468 -0.0421,-0.0975 -0.0645,-0.14454 -0.62147,-1.30859 -1.20276,-2.67952 -1.72657,-4.13867 -0.006,-0.016 -0.0118,-0.0328 -0.0176,-0.0488 -0.31097,-0.85953 -0.59949,-1.75092 -0.87696,-2.6621 -0.19062,-0.63519 -0.38241,-1.2692 -0.55664,-1.92969 -0.36183,-1.34984 -0.68255,-2.76514 -0.97461,-4.22266 -0.0623,-0.3156 -0.13236,-0.61888 -0.1914,-0.93945 -0.35304,-1.88866 -0.65009,-3.86123 -0.88672,-5.92969 -0.24897,-2.17626 -0.41232,-4.46491 -0.49024,-6.86523 -0.0779,-2.40033 -0.0698,-4.91275 0.0234,-7.53711 0.0932,-2.62437 0.27074,-5.36061 0.53516,-8.20899 0.26441,-2.84837 0.61508,-5.80849 1.05078,-8.88086 0.43569,-3.3924 0.94953,-6.64901 1.54101,-9.76953 0.59149,-3.12051 1.26066,-6.10459 2.00782,-8.95312 0.74715,-2.84853 1.57191,-5.56222 2.47461,-8.13867 0.90269,-2.57645 1.88329,-5.01604 2.9414,-7.32032 1.05812,-2.30427 2.16303,-4.49604 3.31446,-6.57617 1.15142,-2.08013 2.34898,-4.04823 3.59375,-5.9043 1.24476,-1.85606 2.53685,-3.60034 3.875,-5.23242 1.33814,-1.63208 2.72273,-3.15238 4.15429,-4.56054 1.38474,-1.42402 2.80931,-2.743 4.26758,-3.97071 0.0679,-0.0572 0.13315,-0.12091 0.20117,-0.17773 0.004,-0.003 0.008,-0.007 0.0117,-0.01 1.38282,-1.15226 2.80255,-2.20417 4.25,-3.18359 0.15416,-0.10435 0.30409,-0.21989 0.45899,-0.32227 0.004,-0.003 0.008,-0.005 0.0117,-0.008 z m 34.11914,18.42383 c -2.11623,0 -4.12314,0.19197 -6.02148,0.57617 -1.89834,0.3842 -3.68866,0.96022 -5.36914,1.72852 -1.68048,0.76829 -3.2522,1.72856 -4.71484,2.88086 -1.46265,1.15229 -2.81571,2.49702 -4.06055,4.0332 -1.07388,1.39496 -2.06417,3.12559 -3.00977,5.03515 -0.23183,0.4825 -0.45975,0.98154 -0.68359,1.4961 -0.57299,1.27728 -1.09855,2.74306 -1.62109,4.22265 -0.5777,1.67397 -1.13194,3.44211 -1.65235,5.34571 -0.001,0.004 -0.003,0.009 -0.004,0.0137 4.71552,-5.30418 11.34699,-7.82617 18.51757,-7.82617 8.62379,0 16.38044,3.21444 20.44727,12.46094 l 3.85742,-29.19727 c -2.24071,-0.25603 -4.73009,-0.38477 -7.46875,-0.38477 -2.48968,-0.25603 -5.22918,-0.38476 -8.2168,-0.38476 z m 49.51368,9.36328 -2.58399,18.71484 -5.17969,37.50782 h 16.30079 c 1.60998,-6.44998 2.14843,-11.82096 2.14843,-17.46094 0,-14.52916 -3.84265,-27.77134 -10.68554,-38.76172 z m -78.5918,24.26172 c -0.003,0.013 -0.005,0.028 -0.008,0.041 -0.5503,2.83613 -1.08721,5.72617 -1.53711,8.96485 -0.49794,3.96847 -0.86421,7.62429 -1.09766,10.96875 -0.23344,3.34445 -0.3338,6.37726 -0.30273,9.09765 0.0311,2.7204 0.19462,5.12831 0.49023,7.22461 0.29561,2.09631 0.72303,3.88134 1.2832,5.35352 0.62242,1.47218 1.38459,2.7612 2.28711,3.86523 0.90253,1.10404 1.94629,2.02381 3.12891,2.75977 1.18263,0.73596 2.50409,1.28635 3.9668,1.6543 1.46271,0.36794 3.06581,0.55273 4.80859,0.55273 1.05812,0 2.10781,-0.0803 3.15039,-0.24023 1.04258,-0.15996 2.07844,-0.39879 3.10547,-0.71875 1.02703,-0.31996 2.04518,-0.72118 3.05664,-1.20118 1.01146,-0.48 2.01585,-1.03961 3.01172,-1.67968 0.64296,-0.42784 1.12769,-0.87872 1.73047,-1.3125 -0.58929,0.0235 -1.17022,0.0605 -1.77539,0.0605 -10.74996,0 -22.04166,-2.14973 -27.43164,-13.42968 h 38.33398 l 4.22266,-31.96094 z m 67.86719,53.40039 -3.17774,23.00391 c 5.95559,-3.2091 11.37328,-7.24797 15.98828,-12.2129 z m -32.43946,7.83594 c -2.48968,2.30427 -5.22916,4.57619 -8.21679,6.8164 -2.98764,2.24022 -6.22343,4.44875 -9.70899,6.625 -1.74277,1.02413 -3.54089,1.91943 -5.39258,2.6875 -1.85168,0.76808 -3.75619,1.40984 -5.71679,1.92188 -1.96061,0.51203 -3.97734,0.89438 -6.04688,1.15039 -2.06953,0.25601 -4.19262,0.38476 -6.37109,0.38476 -0.46038,0 -0.90837,-0.062 -1.36524,-0.0801 9.17878,3.35745 19.5825,5.20898 31.06836,5.20898 13.85669,0 27.48675,-2.7339 39.17579,-8.58594 h -27.42579 z"
     style="fill:#ffffff"
     id="path61" /><path
     d="m 265.4043,330.45117 c -4.6411,-0.0336 -9.00925,1.40377 -12.67578,3.91797 -0.001,8.3e-4 -0.003,10e-4 -0.004,0.002 -1.22804,0.92205 -2.41161,1.93214 -3.48047,3.11524 -0.72884,0.80674 -1.38413,1.65577 -1.98242,2.53125 -0.0487,0.0712 -0.0967,0.14321 -0.14453,0.21484 -0.58037,0.86942 -1.10401,1.76432 -1.56055,2.6875 -0.02,0.0406 -0.0368,0.0824 -0.0566,0.12305 -0.43274,0.88748 -0.8032,1.79912 -1.125,2.72461 -0.0415,0.11978 -0.0853,0.23906 -0.125,0.35937 -0.30409,0.91899 -0.55516,1.85253 -0.75391,2.79688 -0.0286,0.1368 -0.0517,0.2749 -0.0781,0.41211 -0.16413,0.84635 -0.28287,1.70102 -0.36524,2.55859 -0.0199,0.21105 -0.0436,0.42137 -0.0586,0.63281 -0.0629,0.86503 -0.0819,1.73259 -0.0644,2.59961 7e-5,0.003 -8e-5,0.007 0,0.01 0.004,0.18683 0.0175,0.37384 0.0254,0.56055 0.0793,1.96627 0.3689,3.91978 0.84375,5.82421 0.0517,0.20549 0.10985,0.40909 0.16601,0.61329 0.49667,1.81953 1.1745,3.58041 2.01368,5.2539 0.35436,0.70372 0.73608,1.39248 1.14843,2.06055 0.43663,0.70739 0.90445,1.39204 1.4043,2.05273 0.74643,0.98664 1.56302,1.91797 2.44531,2.78125 0.004,0.004 0.008,0.008 0.0117,0.0117 7e-4,5.9e-4 0.001,10e-4 0.002,0.002 2.03836,1.72043 4.34878,3.0829 6.83399,3.96875 7.57714,2.70086 13.96628,1.72758 21.19922,-3.22851 14.07768,-9.64618 12.30736,-34.18187 -3.02539,-41.92774 -3.56226,-1.79959 -7.15338,-2.63327 -10.59375,-2.6582 z"
     style="fill:#008000;stroke-width:1.17962"
     id="path60" /><path
     d="m 770.73047,177.95703 v 97.31836 97.31836 h 24.16015 24.16016 l 0.31641,-26.83594 0.3164,-26.83594 15.20313,25.36133 c 8.36172,13.94897 15.82284,26.03564 16.58008,26.85938 1.0509,1.14322 7.56639,1.42249 27.52734,1.17969 l 26.15234,-0.31836 -21.27929,-32.83399 -21.27735,-32.83594 4.7461,-7.98632 c 2.61007,-4.39343 11.67553,-19.3448 20.14453,-33.22461 l 15.39648,-25.23633 -26.23437,-0.31836 c -14.4293,-0.17501 -26.82743,-0.092 -27.55078,0.18555 -0.72334,0.27757 -7.28775,11.5698 -14.58789,25.09179 -7.30017,13.522 -13.75416,25.08872 -14.3418,25.70508 -0.63887,0.6701 -1.06836,-21.73771 -1.06836,-55.73633 v -56.85742 h -24.18164 z"
     style="fill:#e6e6e6;stroke-width:1.17962"
     id="path59" /><path
     d="m 701.80469,238.44336 v 66.64844 66.64843 h 24.18164 24.18359 V 305.0918 238.44336 h -24.18359 z"
     style="fill:#e6e6e6;stroke-width:1.17962"
     id="path58" /><path
     d="m 638.10547,177.10352 v 97.31835 97.31836 h 24.18164 24.18359 v -97.31836 -97.31835 h -24.18359 z"
     style="fill:#e6e6e6;stroke-width:1.17962"
     id="path57" /><path
     d="m 565.03711,231.01172 c -30.78213,0.58039 -57.93469,20.47621 -66.99805,51.14648 -3.2995,11.16549 -2.81689,29.35836 1.09375,41.28711 7.46557,22.7724 25.03964,39.32064 48.20899,45.39063 10.6244,2.78342 27.3081,3.05285 36.96679,0.59765 11.88716,-3.02167 23.34583,-9.38593 31.67774,-17.5957 4.17821,-4.11695 8.4382,-9.11443 9.46679,-11.10352 l 1.8711,-3.61523 -8.55469,-4.9375 c -4.70514,-2.71514 -13.43711,-7.78197 -19.40234,-11.25977 -5.96524,-3.4778 -11.20834,-6.32226 -11.65235,-6.32226 -0.44402,0 -2.83181,1.82861 -5.30664,4.06445 -8.09304,7.31159 -19.54603,8.26572 -28.48828,2.375 -13.93321,-9.17852 -12.31954,-33.51212 2.73828,-41.29883 7.87666,-4.07318 22.50445,-1.0072 27.89649,5.84766 l 2.28515,2.9043 19.94336,-11.31641 c 10.96934,-6.22456 20.1388,-11.47134 20.375,-11.6582 1.12853,-0.89279 -5.39441,-9.23222 -12.20117,-15.59961 -8.93273,-8.35612 -21.30695,-14.83041 -33.05469,-17.29688 -4.66278,-0.97896 -9.3034,-1.50598 -13.875,-1.60547 -1.00004,-0.0218 -1.99725,-0.0225 -2.99023,-0.004 z"
     style="fill:#e6e6e6;stroke-width:1.17962"
     id="path56" /><path
     d="m 728.99805,169.06641 c -17.65016,-0.25499 -32.62165,19.869 -25.36328,37.27148 3.27315,7.84767 11.42141,14.72506 19.99218,16.87305 7.99896,2.00468 18.24918,-1.49997 25.00782,-8.55078 14.37641,-14.99792 6.71116,-39.37863 -14.09571,-44.83399 -1.86156,-0.48808 -3.71514,-0.73338 -5.54101,-0.75976 z"
     style="fill:#008000;stroke-width:1.17962"
     id="path55" /><path
     d="m 292.11719,241.98242 v 28.90039 c 0,15.89532 -0.31609,28.90235 -0.70313,28.90235 -0.38703,0 -3.09585,-2.10617 -6.01953,-4.67969 -8.2372,-7.25068 -16.3332,-9.87891 -30.43555,-9.87891 -13.35658,0 -21.19595,2.32621 -32.1582,9.54102 -11.80043,7.76645 -21.42624,22.36294 -25.86914,39.22656 -2.73976,10.39874 -2.73834,32.12984 0.004,42.33203 6.01861,22.39232 20.51334,39.17833 39.57031,45.82813 6.6756,2.32938 9.6724,2.67916 20.22266,2.35351 14.26741,-0.44038 20.538,-2.63638 29.78515,-10.43359 l 5.60352,-4.72461 v 5.9668 5.96875 h 24.18164 24.18359 v -89.65039 -89.65235 h -24.18359 z m -25.14649,87.37695 c 8.32929,-0.27705 16.60937,3.49335 21.02344,11.0254 7.55116,12.88507 3.2063,31.60974 -8.77344,37.80468 -4.46627,2.30961 -13.97733,3.14257 -18.95312,1.66016 -16.95946,-5.05261 -23.16965,-28.91888 -11.02344,-42.36328 4.74013,-5.24676 11.24824,-7.91147 17.72656,-8.12696 z"
     style="fill:#e6e6e6;stroke-width:1.17962"
     id="path54" /><path
     d="m 425.37305,280.30664 c -6.97118,0 -13.94095,1.28147 -20.91211,3.8418 -6.97117,2.56032 -13.32055,6.78507 -19.04688,12.67383 -5.72631,5.63271 -10.705,13.05626 -14.9375,22.27343 -4.23248,9.21718 -7.22205,20.6119 -8.96484,34.18164 -1.74279,12.28957 -2.11502,22.78708 -1.11914,31.49219 0.99588,8.70512 2.98696,15.87315 5.97461,21.50586 2.98764,5.3767 6.84769,9.34592 11.57812,11.90625 4.97941,2.56033 10.2082,3.83984 15.68555,3.83984 8.71396,0 16.55618,-2.048 23.52734,-6.14453 6.97118,-4.35255 12.94638,-8.83282 17.92578,-13.4414 v 16.1289 h 29.12891 l 18.29883,-132.49609 c -8.96293,-1.79223 -18.54808,-3.20048 -28.75586,-4.22461 -9.95881,-1.02413 -19.41988,-1.53711 -28.38281,-1.53711 z m 3.36132,27.26758 c 2.98764,0 5.7271,0.12872 8.2168,0.38476 2.73868,0 5.22802,0.12874 7.46875,0.38477 l -9.33594,70.66406 c -2.4897,3.0724 -5.85148,6.01763 -10.08398,8.83399 -3.98353,2.56032 -8.09172,3.83984 -12.32422,3.83984 -6.97116,0 -11.70171,-2.94328 -14.19141,-8.83203 -2.24073,-5.88875 -2.3648,-16.7705 -0.37304,-32.64453 2.24073,-16.13007 5.72659,-27.26733 10.45703,-33.41211 4.9794,-6.14479 11.70102,-9.21875 20.16601,-9.21875 z"
     style="font-size:284.037px;fill:#e6e6e6;stroke-width:1.42018"
     id="path53" /></g></svg>
